{"title":"Pablo Alborán - Palmeras En La Nieve [1080p]","uid":12862568,"size":49623508,"categoryP":"video","categoryS":"music_videos","magnet":"?xt=urn:btih:e39e2a4113b125dc015776a6176460ffed603785&amp;dn=Pablo+Albor%26aacute%3Bn+-+Palmeras+En+La+Nieve+%5B1080p%5D&amp;tr=udp%3A%2F%2Ftracker.leechers-paradise.org%3A6969&amp;tr=udp%3A%2F%2Fzer0day.ch%3A1337&amp;tr=udp%3A%2F%2Fopen.demonii.com%3A1337&amp;tr=udp%3A%2F%2Ftracker.coppersurfer.tk%3A6969&amp;tr=udp%3A%2F%2Fexodus.desync.com%3A6969","seeders":2,"leechers":0,"uploader":"MusicVideos-HQ","files":1,"time":1448754062,"description":"General\r\n\r\nFormat                         : MPEG-4\r\nFormat profile                 : Base Media / Version 2\r\nCodec ID                       : mp42\r\nFile size                      : 47.3 MiB\r\nDuration                       : 3mn 45s\r\nOverall bit rate mode          : Variable\r\nOverall bit rate               : 1 760 Kbps\r\nEncoded date                   : UTC 2015-11-15 12:13:30\r\nTagged date                    : UTC 2015-11-15 12:13:30\r\ngsst                           : 0\r\ngstd                           : 225581\r\ngssd                           : BC9DA38C6\r\ngshh                           : r3---sn-uxajvoxu-btxe.googlevideo.com\r\n\r\nVideo\r\nID                             : 1\r\nFormat                         : AVC\r\nFormat/Info                    : Advanced Video Codec\r\nFormat profile                 :   \r\nFormat settings, CABAC         : Yes\r\nFormat settings, ReFrames      : 1 frame\r\nCodec ID                       : avc1\r\nCodec ID/Info                  : Advanced Video Coding\r\nDuration                       : 3mn 45s\r\nBit rate                       : 1 566 Kbps\r\nMaximum bit rate               : 4 681 Kbps\r\nWidth                          : 1 280 pixels\r\nHeight                         : 720 pixels\r\nDisplay aspect ratio           : 16:9\r\nFrame rate mode                : Constant\r\nFrame rate                     : 25.000 fps\r\nColor space                    : YUV\r\nChroma subsampling             : 4:2:0\r\nBit depth                      : 8 bits\r\nScan type                      : Progressive\r\nBits/(Pixel*Frame)             : 0.068\r\nStream size                    : 42.1 MiB (89%)\r\nTagged date                    : UTC 2015-11-15 12:13:31\r\nColor range                    : Limited\r\nColor primaries                : BT.709\r\nTransfer characteristics       : BT.709\r\nMatrix coefficients            : BT.709\r\n\r\nAudio\r\nID                             : 2\r\nFormat                         : AAC\r\nFormat/Info                    : Advanced Audio Codec\r\nFormat profile                 : LC\r\nCodec ID                       : 40\r\nDuration                       : 3mn 45s\r\nBit rate mode                  : Variable\r\nBit rate                       : 192 Kbps\r\nMaximum bit rate               : 203 Kbps\r\nChannel(s)                     : 2 channels\r\nChannel positions              : Front: L R\r\nSampling rate                  : 44.1 KHz\r\nCompression mode               : Lossy\r\nStream size                    : 5.16 MiB (11%)\r\nTitle                          : IsoMedia File Produced by Google, 5-11-2011\r\nLanguage                       : English\r\nEncoded date                   : UTC 2015-11-15 12:13:31\r\nTagged date                    : UTC 2015-11-15 12:13:31","torrent":{"xt":"urn:btih:e39e2a4113b125dc015776a6176460ffed603785","amp;dn":"Pablo+Albor%26aacute%3Bn+-+Palmeras+En+La+Nieve+%5B1080p%5D","amp;tr":["udp%3A%2F%2Ftracker.leechers-paradise.org%3A6969","udp%3A%2F%2Fzer0day.ch%3A1337","udp%3A%2F%2Fopen.demonii.com%3A1337","udp%3A%2F%2Ftracker.coppersurfer.tk%3A6969","udp%3A%2F%2Fexodus.desync.com%3A6969"],"infoHash":"e39e2a4113b125dc015776a6176460ffed603785","infoHashBuffer":{"type":"Buffer","data":[227,158,42,65,19,177,37,220,1,87,118,166,23,100,96,255,237,96,55,133]},"announce":[],"urlList":[]}}